# xmcd CD database file
# Copyright (C) 1993-1996 Ti Kan
#
# Track frame offsets:
# 150
# 30615
# 49815
# 59287
# 78487
# 78792
# 92470
# 116305
# 135457
#
# Disc length: 2166 seconds
#
# Revision: 0
# Processed by: cddbd v1.4b41PL1 Copyright (c) Steve Scherf et al.
# Submitted via: inCDius 1.1b2
#
DISCID=61087409
DTITLE=Hot Tuna - Splashdown
DYEAR=1900
DGENRE=
TTITLE0=Death Don't Have No Mercy
TTITLE1=I Am The Light
TTITLE2=Embryonic Journey
TTITLE3=Police Dog Blues
TTITLE4=Splash Down
TTITLE5=Keep Your Lamps Trimmed and Burning
TTITLE6=I Know You Rider
TTITLE7=Keep On Truckin'
TTITLE8=Candyman
EXTD=©1984 Relix Records, Inc\nRecorded live at WQIV-FM, New York, 25 July, 197
EXTD=5
EXTT0=
EXTT1=
EXTT2=
EXTT3=
EXTT4=
EXTT5=
EXTT6=
EXTT7=
EXTT8=
PLAYORDER=
